<svg id="Layer_1" xmlns="http://www.w3.org/2000/svg" xmlns:xlink="http://www.w3.org/1999/xlink" x="0px" y="0px" viewBox="0 0 225.58 227.27" xml:space="preserve" alt="Beehive" class="header-logo"><style type="text/css">
	.st0{fill:url(#SVGID_1_);}
</style><linearGradient id="SVGID_1_" gradientUnits="userSpaceOnUse" x1="239.2629" y1="174.798" x2="49.0112" y2="37.5901"><stop offset="0" style="stop-color: rgb(248, 178, 51);"></stop><stop offset="0.008158652" style="stop-color: rgb(248, 177, 51);"></stop><stop offset="0.1892" style="stop-color: rgb(243, 158, 52);"></stop><stop offset="0.3756" style="stop-color: rgb(241, 147, 52);"></stop><stop offset="0.5742" style="stop-color: rgb(240, 143, 52);"></stop><stop offset="1" style="stop-color: rgb(248, 178, 51);"></stop></linearGradient><path class="st0" d="M191,104.8h-48.69c-3.66,0-7.03-1.95-8.86-5.12l-24.34-42.16c-1.83-3.17-1.83-7.07,0-10.23l24.34-42.17 c1.83-3.16,5.2-5.12,8.86-5.12H191c3.66,0,7.03,1.95,8.86,5.12l24.34,42.17c1.83,3.17,1.83,7.07,0,10.23l-24.34,42.17 C198.03,102.85,194.66,104.8,191,104.8z M148.22,84.33h36.87l18.44-31.93L185.1,20.47h-36.87L129.79,52.4 C129.79,52.4,148.22,84.33,148.22,84.33z M83.27,167.18H34.58c-3.66,0-7.03-1.95-8.86-5.11L1.37,119.89 c-1.83-3.17-1.83-7.07,0-10.23l24.34-42.17c1.83-3.16,5.21-5.11,8.86-5.11h48.69c3.66,0,7.03,1.95,8.86,5.11l24.34,42.17 c1.83,3.16,1.83,7.06,0,10.23l-24.34,42.17C90.31,165.23,86.93,167.18,83.27,167.18z M40.49,146.71h36.87l18.44-31.93L77.36,82.84 H40.49l-18.44,31.93C22.05,114.78,40.49,146.71,40.49,146.71z M191,227.27h-48.69c-3.66,0-7.03-1.96-8.86-5.12l-24.34-42.17 c-1.83-3.17-1.83-7.06,0-10.23l24.34-42.17c1.83-3.16,5.2-5.11,8.86-5.11H191c3.66,0,7.03,1.95,8.86,5.11l24.34,42.17 c1.83,3.17,1.83,7.06,0,10.23l-24.34,42.17C198.03,225.32,194.66,227.27,191,227.27z M148.22,206.8h36.87l18.44-31.93l-18.44-31.93 h-36.87l-18.44,31.93C129.79,174.86,148.22,206.8,148.22,206.8z"></path></svg>